# xmcd
#
# Track frame offsets: 
#        150
#        18878
#        38903
#        58293
#        72745
#        87783
#        105890
#        119643
#        137610
#        153208
#
# Disc length: 2282 seconds
#
# Revision: 4
# Processed by: cddbd v1.5.2PL0 Copyright (c) Steve Scherf et al.
# Submitted via: ExactAudioCopyFreeDBPlugin 1.0
#
DISCID=8108e80a
DTITLE=Pino Daniele - Un uomo in blues
DYEAR=1991
DGENRE=Blues
TTITLE0='O scarrafone
TTITLE1=Un uomo in blues
TTITLE2=Gente distratta
TTITLE3=Che soddisfazione
TTITLE4=Invece no
TTITLE5=Leave a message
TTITLE6=Domani
TTITLE7=Femmena
TTITLE8=For your love
TTITLE9=Solo
EXTD=YEAR: 1991 ID3G:   0
EXTT0=
EXTT1=
EXTT2=
EXTT3=
EXTT4=
EXTT5=
EXTT6=
EXTT7=
EXTT8=
EXTT9=
PLAYORDER=
